{"title":"The Pacific Part 1 'Guadalcanal Leckie' 1080i HDTV","uid":5442126,"size":7060016828,"categoryP":"video","categoryS":"hd___tv_shows","magnet":"?xt=urn:btih:0da12c1a26a52b31b377349f0fc4bb39f5c2718e&amp;dn=The+Pacific+Part+1+%5C%27Guadalcanal+Leckie%5C%27+1080i+HDTV&amp;tr=udp%3A%2F%2Ftracker.openbittorrent.com%3A80&amp;tr=udp%3A%2F%2Fopen.demonii.com%3A1337&amp;tr=udp%3A%2F%2Ftracker.coppersurfer.tk%3A6969&amp;tr=udp%3A%2F%2Fexodus.desync.com%3A6969","seeders":0,"leechers":0,"uploader":"CHD242522","files":-1,"time":1268870474,"description":"Synopsis\nA 10-part mini-series from the creators of &quot;Band of Brothers&quot; telling the intertwined stories of three Marines during America's battle with the Japanese in the Pacific during World War II.\n\nThe Pacific Part 1 'Guadalcanal Leckie' 1080i HDTV DD5.1 MPEG2-CtrlHD\nFile size                        : 4.74 GiB\nDuration                         : 58mn 42s\nOverall bit rate                 : 11.6 Mbps\n\nVideo\nID                               : 33 (0x21)\nMenu ID                          : 1 (0x1)\nFormat                           : MPEG Video\nFormat version                   : Version 2\nFormat profile                   : Main@High\nFormat settings, BVOP            : Yes\nFormat settings, Matrix          : Default\nDuration                         : 58mn 41s\nBit rate mode                    : Variable\nBit rate                         : 10.4 Mbps\nNominal bit rate                 : 18.0 Mbps\nWidth                            : 1 920 pixels\nHeight                           : 1 080 pixels\nDisplay aspect ratio             : 16:9\nFrame rate                       : 29.970 fps\nStandard                         : Component\nResolution                       : 8 bits\nColorimetry                      : 4:2:0\nBits/(Pixel*Frame)               : 0.167\nStream size                      : 4.25 GiB (90%)\n\nAudio\nID                               : 36 (0x24)\nMenu ID                          : 1 (0x1)\nFormat                           : AC-3\nFormat/Info                      : Audio Coding 3\nDuration                         : 58mn 41s\nBit rate mode                    : Constant\nBit rate                         : 384 Kbps\nChannel(s)                       : 6 channels\nChannel positions                : Front: L C R, Surround: L R, LFE\nSampling rate                    : 48.0 KHz\nStream size                      : 161 MiB (3%)\n\nMaking The Pacific 2010 1080i HDTV DD2.0 MPEG2-CtrlHD\nFormat                           : MPEG-TS\nFile size                        : 1.84 GiB\nDuration                         : 20mn 5s\nOverall bit rate                 : 13.1 Mbps\n\nVideo\nID                               : 33 (0x21)\nMenu ID                          : 1 (0x1)\nFormat                           : MPEG Video\nFormat version                   : Version 2\nFormat profile                   : Main@High\nFormat settings, BVOP            : Yes\nFormat settings, Matrix          : Default\nDuration                         : 20mn 5s\nBit rate mode                    : Variable\nBit rate                         : 11.8 Mbps\nNominal bit rate                 : 18.0 Mbps\nWidth                            : 1 920 pixels\nHeight                           : 1 080 pixels\nDisplay aspect ratio             : 16:9\nFrame rate                       : 29.970 fps\nStandard                         : Component\nResolution                       : 8 bits\nColorimetry                      : 4:2:0\nBits/(Pixel*Frame)               : 0.190\nStream size                      : 1.65 GiB (90%)\n\nAudio\nID                               : 36 (0x24)\nMenu ID                          : 1 (0x1)\nFormat                           : AC-3\nFormat/Info                      : Audio Coding 3\nDuration                         : 20mn 5s\nBit rate mode                    : Constant\nBit rate                         : 384 Kbps\nChannel(s)                       : 2 channels\nChannel positions                : L R\nSampling rate                    : 48.0 KHz\nStream size                      : 55.2 MiB (3%)","torrent":{"xt":"urn:btih:0da12c1a26a52b31b377349f0fc4bb39f5c2718e","amp;dn":"The+Pacific+Part+1+%5C%27Guadalcanal+Leckie%5C%27+1080i+HDTV","amp;tr":["udp%3A%2F%2Ftracker.openbittorrent.com%3A80","udp%3A%2F%2Fopen.demonii.com%3A1337","udp%3A%2F%2Ftracker.coppersurfer.tk%3A6969","udp%3A%2F%2Fexodus.desync.com%3A6969"],"infoHash":"0da12c1a26a52b31b377349f0fc4bb39f5c2718e","infoHashBuffer":{"type":"Buffer","data":[13,161,44,26,38,165,43,49,179,119,52,159,15,196,187,57,245,194,113,142]},"announce":[],"urlList":[]}}